<svg xmlns="http://www.w3.org/2000/svg" viewBox="0 0 147.21 14.73"><defs><style>.cls-1{fill:#224099;}</style></defs><title>borealisAI_wordmark</title><g id="Layer_2" data-name="Layer 2"><g id="artwork"><path class="cls-1" d="M0,.38H4.8a6.18,6.18,0,0,1,2,.28,4.32,4.32,0,0,1,1.41.77A3.31,3.31,0,0,1,9,2.58,3.6,3.6,0,0,1,9.32,4a2.83,2.83,0,0,1-.27,1.27,3.14,3.14,0,0,1-.64.91,2.69,2.69,0,0,1-.73.55,1.6,1.6,0,0,1-.58.17A4.11,4.11,0,0,1,8,7.15,3.13,3.13,0,0,1,9.7,8.78,3.53,3.53,0,0,1,10,10.34a4.15,4.15,0,0,1-.39,1.9,3.38,3.38,0,0,1-1.1,1.24,4.67,4.67,0,0,1-1.66.67,10.21,10.21,0,0,1-2.06.2H0ZM4.67,6a4,4,0,0,0,.78-.08,2.08,2.08,0,0,0,.68-.3,1.59,1.59,0,0,0,.48-.52,1.61,1.61,0,0,0,.18-.8,1.56,1.56,0,0,0-.19-.79A1.59,1.59,0,0,0,6.11,3a2.23,2.23,0,0,0-.68-.26,4,4,0,0,0-.76-.07H2.54V6Zm.11,6.16c.25,0,.52,0,.82,0a2.47,2.47,0,0,0,.85-.26,1.69,1.69,0,0,0,.67-.58,1.83,1.83,0,0,0,.28-1.06,1.76,1.76,0,0,0-.27-1,1.87,1.87,0,0,0-.65-.6,2.65,2.65,0,0,0-.84-.31,5.5,5.5,0,0,0-.86-.08H2.54v4Z"/><path class="cls-1" d="M22,14.73a7,7,0,0,1-2.85-.58,7.1,7.1,0,0,1-2.3-1.58,7.43,7.43,0,0,1,0-10.42A6.86,6.86,0,0,1,19.18.58,7,7,0,0,1,22,0a7,7,0,0,1,2.85.58,7.07,7.07,0,0,1,2.3,1.57,7.15,7.15,0,0,1,1.55,2.33,7.28,7.28,0,0,1,.57,2.87,7.24,7.24,0,0,1-.57,2.87,7.23,7.23,0,0,1-1.55,2.35,7.1,7.1,0,0,1-2.3,1.58A7,7,0,0,1,22,14.73Zm0-2.5a4.23,4.23,0,0,0,3.29-1.47,4.92,4.92,0,0,0,.9-1.58,5.68,5.68,0,0,0,.31-1.89,5.69,5.69,0,0,0-.31-1.9,4.83,4.83,0,0,0-.9-1.56A4.18,4.18,0,0,0,23.9,2.78a4.68,4.68,0,0,0-3.74,0,4.2,4.2,0,0,0-1.41,1.05,4.83,4.83,0,0,0-.9,1.56,5.69,5.69,0,0,0-.31,1.9,5.68,5.68,0,0,0,.31,1.89,4.92,4.92,0,0,0,.9,1.58A4.15,4.15,0,0,0,22,12.23Z"/><path class="cls-1" d="M34.53.38h4.63a5.57,5.57,0,0,1,2.24.4,4.17,4.17,0,0,1,1.48,1,3.83,3.83,0,0,1,.83,1.35A4.06,4.06,0,0,1,44,4.55a4.65,4.65,0,0,1-.57,2.33,4.19,4.19,0,0,1-1.77,1.63l3.22,5.84h-3L39.05,8.84h-2v5.51H34.53Zm4.65,6.28a2,2,0,0,0,1.56-.58,2,2,0,0,0,.55-1.43,2,2,0,0,0-.58-1.47,2.17,2.17,0,0,0-1.53-.56H37.06v4Z"/><path class="cls-1" d="M50.57.38h9V2.7H53.21V6h4.72V8.34H53.21V12h6.9v2.37H50.57Z"/><path class="cls-1" d="M70.27.38H73l5.3,14H75.36l-1.22-3.54H69l-1.22,3.54H65Zm3.12,8.25L71.54,3.21,69.68,8.63Z"/><path class="cls-1" d="M83.72.38h2.64V12h6.89v2.35H83.72Z"/><path class="cls-1" d="M99.07.38h2.64v14H99.07Z"/><path class="cls-1" d="M109.44,10.41a8.48,8.48,0,0,0,.6.62,5.9,5.9,0,0,0,.77.61,4.59,4.59,0,0,0,1,.47,3.73,3.73,0,0,0,1.2.19,2.58,2.58,0,0,0,1.84-.57,1.92,1.92,0,0,0,.43-2.15,1.62,1.62,0,0,0-.57-.6,4.23,4.23,0,0,0-1-.47,12.39,12.39,0,0,0-1.58-.4,5.4,5.4,0,0,1-1.66-.59,4.24,4.24,0,0,1-1.17-.94,3.76,3.76,0,0,1-.69-1.21,4.1,4.1,0,0,1,.06-2.87,3.6,3.6,0,0,1,.9-1.27A4.82,4.82,0,0,1,111,.33a7.28,7.28,0,0,1,4.06-.08,5.7,5.7,0,0,1,1.33.59,4,4,0,0,1,.83.66l.41.47L115.92,3.6a3,3,0,0,1-.34-.3,3.12,3.12,0,0,0-.58-.43,4.18,4.18,0,0,0-.82-.38,3.38,3.38,0,0,0-1.09-.16,2.72,2.72,0,0,0-1,.14,2.33,2.33,0,0,0-.66.38,1.42,1.42,0,0,0-.38.51,1.25,1.25,0,0,0-.13.54,1.6,1.6,0,0,0,.14.67,1.51,1.51,0,0,0,.46.54,3.07,3.07,0,0,0,.89.45,9.27,9.27,0,0,0,1.42.37,7.85,7.85,0,0,1,1.58.5,5,5,0,0,1,1.33.87,4.08,4.08,0,0,1,.92,1.3,4.43,4.43,0,0,1,.34,1.83,3.85,3.85,0,0,1-.37,1.7,4.48,4.48,0,0,1-1.05,1.36,4.79,4.79,0,0,1-1.59.91,6,6,0,0,1-2,.33,6.92,6.92,0,0,1-1.89-.25,7.1,7.1,0,0,1-1.53-.64,6,6,0,0,1-1.17-.85,8.19,8.19,0,0,1-.83-.88Z"/><path class="cls-1" d="M133.49.38h1l5.72,14h-1.16l-1.82-4.5h-6.58l-1.8,4.5h-1.09Zm3.38,8.52L134,1.66,131,8.9Z"/><path class="cls-1" d="M146.21.38h1v14h-1Z"/></g></g></svg>