<?xml version="1.0" standalone="no"?><!-- Generator: Gravit.io --><svg xmlns="http://www.w3.org/2000/svg" xmlns:xlink="http://www.w3.org/1999/xlink" style="isolation:isolate" viewBox="0 0 2076 1477" width="2076" height="1477"><defs><clipPath id="_clipPath_YMff16T76x107HlNg3pN1RPABZ5pwiYH"><rect width="2076" height="1477"/></clipPath></defs><g clip-path="url(#_clipPath_YMff16T76x107HlNg3pN1RPABZ5pwiYH)"><g transform="matrix(21.875,0,0,21.875,29.875,541)"><text transform="matrix(1,0,0,1,17.792,16)" style="font-family:'QTRIKA+Avenir-Roman';font-weight:400;font-size:16px;font-style:normal;fill:#5b5b5b;stroke:none;">for </text></g><g><g><clipPath id="_clipPath_nQkwidanFNmp9CXXOzuIvNAEp8g4AZZC"><path d=" M 1015.211 45.843 L 1980.407 45.843 L 1980.407 1011.039 L 1015.211 1011.039 L 1015.211 45.843 Z " fill="rgb(255,255,255)"/></clipPath><g clip-path="url(#_clipPath_nQkwidanFNmp9CXXOzuIvNAEp8g4AZZC)"><path d=" M 1015.211 528.441 C 1015.211 261.909 1231.278 45.843 1497.809 45.843 C 1764.341 45.843 1980.407 261.909 1980.407 528.441 C 1980.407 794.972 1764.341 1011.039 1497.809 1011.039 C 1231.278 1011.039 1015.211 794.972 1015.211 528.441 Z " fill="rgb(208,245,247)"/></g><path d=" M 1754.453 632.23 L 1809.287 590.928 L 1771.794 736.092 L 1714.113 767.817 L 1659.797 756.761" fill="rgb(201,204,204)"/><clipPath id="_clipPath_5NvPoZX0LFKA6JRAXCrZ0MXmUf3zn3oE"><path d=" M 1014.25 45.843 L 1979.446 45.843 L 1979.446 1011.039 L 1014.25 1011.039 L 1014.25 45.843 Z " fill="rgb(255,255,255)"/></clipPath><g clip-path="url(#_clipPath_5NvPoZX0LFKA6JRAXCrZ0MXmUf3zn3oE)"><path d=" M 1739.156 675.17 L 1783.811 541.419 C 1783.811 541.419 1792.86 530.551 1810.768 534.27 C 1828.677 537.99 1828.892 555.677 1828.892 555.677" fill="rgb(201,204,204)" vector-effect="non-scaling-stroke" stroke-width="9" stroke="rgb(91,91,91)" stroke-linejoin="miter" stroke-linecap="square" stroke-miterlimit="3"/><path d=" M 1243.198 632.227 L 1188.364 590.926 L 1225.857 736.09 L 1283.538 767.814 L 1337.854 756.759" fill="rgb(201,204,204)"/><path d=" M 1257.534 675.167 L 1212.878 541.416 C 1212.878 541.416 1203.831 530.547 1185.922 534.267 C 1168.013 537.987 1167.798 555.674 1167.798 555.674" fill="rgb(201,204,204)" vector-effect="non-scaling-stroke" stroke-width="9" stroke="rgb(91,91,91)" stroke-linejoin="miter" stroke-linecap="square" stroke-miterlimit="3"/><path d=" M 1496.367 282.335 C 1346.376 282.335 1224.786 403.926 1224.786 553.916 C 1224.786 703.907 1346.376 825.498 1496.367 825.498 C 1646.358 825.498 1767.949 703.907 1767.949 553.916 C 1767.949 403.926 1646.358 282.335 1496.367 282.335 Z " fill="rgb(13,117,180)"/><path d=" M 1496.367 282.335 C 1346.376 282.335 1224.786 403.926 1224.786 553.916 C 1224.786 703.907 1346.376 825.498 1496.367 825.498 C 1646.358 825.498 1767.949 703.907 1767.949 553.916 C 1767.949 403.926 1646.358 282.335 1496.367 282.335 Z " fill="rgb(26,136,193)"/><path d=" M 1412.725 425.825 L 1256.846 425.825 C 1239.396 458.388 1228.386 494.917 1225.534 533.717 C 1228.889 534.371 1232.349 534.724 1235.889 534.724 L 1412.725 534.724 C 1442.672 534.724 1467.175 510.222 1467.175 480.275 C 1467.175 450.327 1442.672 425.825 1412.725 425.825 Z " fill="rgb(108,205,75)"/><path d=" M 1752.423 622.397 L 1575.587 622.397 C 1545.64 622.397 1521.138 646.899 1521.138 676.847 C 1521.138 706.794 1545.64 731.296 1575.587 731.296 L 1702.02 731.296 C 1728.672 700.422 1748.485 663.481 1759.118 622.826 C 1756.921 622.553 1754.69 622.397 1752.423 622.397 Z " fill="rgb(108,205,75)"/><path d=" M 1397.025 553.187 L 1313.512 553.187 C 1290.499 553.187 1271.671 572.016 1271.671 595.028 L 1271.671 597 C 1271.671 620.012 1290.499 638.841 1313.512 638.841 L 1397.025 638.841 C 1420.038 638.841 1438.867 620.012 1438.867 597 L 1438.867 595.028 C 1438.867 572.016 1420.038 553.187 1397.025 553.187 Z " fill="rgb(108,205,75)"/><path d=" M 1663.986 340.219 L 1563.013 340.219 C 1546.306 340.219 1532.638 353.889 1532.638 370.596 C 1532.638 387.302 1546.306 400.973 1563.013 400.973 L 1719.88 400.973 C 1720.185 400.973 1720.485 400.958 1720.788 400.949 C 1705.057 377.913 1685.88 357.417 1663.986 340.219 Z " fill="rgb(108,205,75)"/><path d=" M 1682.76 521.34 L 1599.248 521.34 C 1576.235 521.34 1557.407 540.169 1557.407 563.181 L 1557.407 565.153 C 1557.407 588.166 1576.235 606.995 1599.248 606.995 L 1682.76 606.995 C 1705.773 606.995 1724.601 588.166 1724.601 565.153 L 1724.601 563.181 C 1724.601 540.169 1705.773 521.34 1682.76 521.34 Z " fill="rgb(108,205,75)"/><path d=" M 1391.981 553.916 L 1319.441 553.916 C 1319.441 553.916 1328.288 553.916 1328.288 544.186 C 1328.288 534.455 1319.441 534.455 1319.441 534.455 L 1391.981 534.455 C 1391.981 534.455 1381.366 534.455 1381.366 544.186 C 1381.366 553.916 1391.981 553.916 1391.981 553.916 Z " fill="rgb(108,205,75)"/><path d=" M 1674.178 622.918 L 1606.062 622.918 C 1606.062 622.918 1614.024 622.918 1614.024 614.956 C 1614.024 606.995 1606.062 606.995 1606.062 606.995 C 1625.839 604.089 1648.554 604.099 1674.178 606.995 C 1674.178 606.995 1666.216 606.995 1666.216 614.956 C 1666.216 622.918 1674.178 622.918 1674.178 622.918 Z " fill="rgb(108,205,75)"/><path d=" M 1419.356 698.996 L 1266.76 698.996 C 1279.609 719.289 1295.073 737.761 1312.681 753.939 L 1419.356 753.939 C 1434.466 753.939 1446.829 741.577 1446.829 726.467 C 1446.829 711.358 1434.466 698.996 1419.356 698.996 Z " fill="rgb(108,205,75)"/><path d=" M 1640.17 540.627 L 1532.144 540.627 C 1519.279 540.627 1508.752 551.152 1508.752 564.019 L 1508.752 565.121 C 1508.752 577.987 1519.279 588.514 1532.144 588.514 L 1640.17 588.514 C 1653.035 588.514 1663.562 577.987 1663.562 565.121 L 1663.562 564.019 C 1663.562 551.152 1653.035 540.627 1640.17 540.627 Z " fill="rgb(255,255,255)"/><path d=" M 1480.221 432.702 L 1347.973 432.702 C 1332.28 432.702 1319.441 445.54 1319.441 461.233 L 1319.441 462.577 C 1319.441 478.268 1332.28 491.108 1347.973 491.108 L 1480.221 491.108 C 1495.913 491.108 1508.752 478.268 1508.752 462.577 L 1508.752 461.233 C 1508.752 445.54 1495.913 432.702 1480.221 432.702 Z " fill="rgb(255,255,255)"/><path d=" M 1461.474 663.59 L 1377.335 663.59 C 1364.468 663.59 1353.942 674.116 1353.942 686.983 L 1353.942 688.084 C 1353.942 700.95 1364.468 711.478 1377.335 711.478 L 1461.474 711.478 C 1474.34 711.478 1484.867 700.95 1484.867 688.084 L 1484.867 686.983 C 1484.867 674.116 1474.34 663.59 1461.474 663.59 Z " fill="rgb(255,255,255)"/><path d=" M 1538.82 331.034 L 1479.569 331.034 C 1468.859 331.034 1460.098 339.797 1460.098 350.506 L 1460.098 351.423 C 1460.098 362.133 1468.859 370.895 1479.569 370.895 L 1538.82 370.895 C 1549.529 370.895 1558.291 362.133 1558.291 351.423 L 1558.291 350.506 C 1558.291 339.797 1549.529 331.034 1538.82 331.034 Z " fill="rgb(255,255,255)"/><path d=" M 1496.367 282.335 C 1346.376 282.335 1224.786 403.926 1224.786 553.916 C 1224.786 703.907 1346.376 825.498 1496.367 825.498 C 1646.358 825.498 1767.949 703.907 1767.949 553.916 C 1767.949 403.926 1646.358 282.335 1496.367 282.335 Z  M 1496.367 290.987 C 1531.866 290.987 1566.299 297.938 1598.709 311.646 C 1630.017 324.888 1658.137 343.848 1682.287 367.997 C 1706.436 392.147 1725.396 420.268 1738.638 451.575 C 1752.346 483.985 1759.297 518.418 1759.297 553.916 C 1759.297 589.415 1752.346 623.848 1738.638 656.258 C 1725.396 687.565 1706.436 715.686 1682.287 739.836 C 1658.137 763.986 1630.017 782.945 1598.709 796.187 C 1566.299 809.895 1531.866 816.846 1496.367 816.846 C 1460.869 816.846 1426.436 809.895 1394.026 796.187 C 1362.717 782.945 1334.598 763.986 1310.448 739.836 C 1286.299 715.686 1267.339 687.565 1254.096 656.258 C 1240.388 623.848 1233.438 589.415 1233.438 553.916 C 1233.438 518.418 1240.388 483.985 1254.096 451.575 C 1267.339 420.268 1286.299 392.147 1310.448 367.997 C 1334.598 343.848 1362.717 324.888 1394.026 311.646 C 1426.436 297.938 1460.869 290.987 1496.367 290.987 Z " fill="rgb(91,91,91)"/></g></g><line x1="1501.174" y1="191.968" x2="1499.251" y2="287.622" vector-effect="non-scaling-stroke" stroke-width="10" stroke="rgb(108,205,75)" stroke-linejoin="miter" stroke-linecap="square" stroke-miterlimit="3"/><clipPath id="_clipPath_pKAwCHaqBmZgMDJ8OQqKwqjxoVtcCE5w"><path d=" M 1015.211 46.804 L 1980.407 46.804 L 1980.407 1012 L 1015.211 1012 L 1015.211 46.804 Z " fill="rgb(255,255,255)"/></clipPath><g clip-path="url(#_clipPath_pKAwCHaqBmZgMDJ8OQqKwqjxoVtcCE5w)"><path d=" M 1496.706 198.826 L 1506.065 198.826 L 1506.065 171.685 C 1506.065 171.685 1536.014 167.942 1539.757 148.288 C 1543.501 128.634 1536.014 104.3 1525.719 90.263 C 1515.424 76.224 1501.386 62.185 1501.386 62.185 C 1501.386 62.185 1483.604 79.032 1477.052 88.391 C 1470.501 97.75 1453.655 132.377 1463.014 151.096 C 1472.372 169.813 1496.706 172.621 1496.706 172.621 L 1496.706 198.826 Z " fill="rgb(108,205,75)"/><path d=" M 1502.674 240.342 L 1500.157 255.414 L 1530.888 230.982 C 1530.888 230.982 1552.793 253.269 1571.316 243.995 C 1589.84 234.722 1605.154 213.265 1610.233 195.972 C 1615.312 178.677 1618.038 158.302 1618.038 158.302 C 1618.038 158.302 1593 154.261 1581.183 154.754 C 1569.365 155.246 1530.284 163.153 1520.767 182.619 C 1511.249 202.085 1524.234 223.87 1524.234 223.87 L 1502.674 240.342 Z " fill="rgb(108,205,75)"/><path d=" M 1497.782 257.225 L 1497.478 269.884 L 1466.906 244.558 C 1466.906 244.558 1444.309 266.143 1426.087 256.29 C 1407.866 246.437 1393.235 224.509 1388.704 207.063 C 1384.172 189.617 1382.09 169.166 1382.09 169.166 C 1382.09 169.166 1407.243 165.917 1419.039 166.782 C 1430.836 167.647 1469.648 176.782 1478.547 196.538 C 1487.446 216.294 1473.78 237.659 1473.78 237.659 L 1497.782 257.225 Z " fill="rgb(108,205,75)"/><path d=" M 1693.34 755.489 L 1752.452 718.86 L 1802.8 570.893 C 1802.8 570.893 1807.853 554.236 1829.853 556.638 C 1851.855 559.04 1850.549 580.237 1850.549 580.237 C 1850.549 580.237 1831.409 762.094 1824.908 772.769 C 1818.408 783.443 1545.396 973.065 1545.396 973.065 L 1523.285 955.761 L 1520.401 794.254 L 1698.411 659.024 C 1698.411 659.024 1717.119 651.195 1732.619 664.271 C 1748.12 677.347 1737.68 701.033 1737.68 701.033 L 1655.643 798.353" fill="rgb(201,204,204)" vector-effect="non-scaling-stroke" stroke-width="9" stroke="rgb(91,91,91)" stroke-linejoin="miter" stroke-linecap="square" stroke-miterlimit="3"/><path d=" M 1660.117 807.159 C 1659.03 814.243 1652.406 819.106 1645.32 818.019 C 1638.236 816.932 1632.412 810.307 1633.499 803.223 C 1634.586 796.138 1641.21 791.277 1648.295 792.363 C 1655.38 793.449 1661.203 800.074 1660.117 807.159 Z " fill="rgb(201,204,204)"/><path d=" M 1660.117 807.159 C 1659.03 814.243 1652.406 819.106 1645.32 818.019 C 1638.236 816.932 1632.412 810.307 1633.499 803.223 C 1634.586 796.138 1641.21 791.277 1648.295 792.363 C 1655.38 793.449 1661.203 800.074 1660.117 807.159 Z " fill="none" vector-effect="non-scaling-stroke" stroke-width="9" stroke="rgb(91,91,91)" stroke-linejoin="miter" stroke-linecap="square" stroke-miterlimit="3"/><line x1="1729.014" y1="663.51" x2="1586.734" y2="813.481" vector-effect="non-scaling-stroke" stroke-width="9" stroke="rgb(91,91,91)" stroke-linejoin="miter" stroke-linecap="square" stroke-miterlimit="3"/><path d=" M 1586.648 819.889 C 1585.562 826.975 1578.937 831.837 1571.852 830.751 C 1564.768 829.664 1559.905 823.039 1560.993 815.955 C 1562.079 808.87 1568.703 804.007 1575.788 805.093 C 1582.873 806.181 1587.735 812.805 1586.648 819.889 Z " fill="rgb(201,204,204)"/><path d=" M 1586.648 819.889 C 1585.562 826.975 1578.937 831.837 1571.852 830.751 C 1564.768 829.664 1559.905 823.039 1560.993 815.955 C 1562.079 808.87 1568.703 804.007 1575.788 805.093 C 1582.873 806.181 1587.735 812.805 1586.648 819.889 Z " fill="none" vector-effect="non-scaling-stroke" stroke-width="9" stroke="rgb(91,91,91)" stroke-linejoin="miter" stroke-linecap="square" stroke-miterlimit="3"/><path d=" M 1846.299 581.796 L 1814.139 608.566 L 1784.362 738.807 L 1728.077 776.248" fill="rgb(201,204,204)" vector-effect="non-scaling-stroke" stroke-width="9" stroke="rgb(91,91,91)" stroke-linejoin="miter" stroke-linecap="square" stroke-miterlimit="3"/><path d=" M 1726.984 783.374 C 1725.897 790.459 1718.311 795.322 1711.226 794.234 C 1704.142 793.148 1699.279 786.524 1700.366 779.438 C 1701.452 772.354 1708.077 767.492 1715.162 768.578 C 1722.246 769.665 1728.07 776.29 1726.984 783.374 Z " fill="rgb(201,204,204)"/><path d=" M 1726.984 783.374 C 1725.897 790.459 1718.311 795.322 1711.226 794.234 C 1704.142 793.148 1699.279 786.524 1700.366 779.438 C 1701.452 772.354 1708.077 767.492 1715.162 768.578 C 1722.246 769.665 1728.07 776.29 1726.984 783.374 Z " fill="none" vector-effect="non-scaling-stroke" stroke-width="9" stroke="rgb(91,91,91)" stroke-linejoin="miter" stroke-linecap="square" stroke-miterlimit="3"/><path d=" M 1545.165 962.76 C 1547.023 971.666 1540.385 978.804 1532.542 978.822 C 1526.502 978.837 1521.594 974.149 1520.653 968.183 C 1519.26 959.353 1526.209 952.452 1534.143 952.881 C 1539.62 953.177 1544.044 957.39 1545.165 962.76 Z " fill="rgb(201,204,204)"/><path d=" M 1545.165 962.76 C 1547.023 971.666 1540.385 978.804 1532.542 978.822 C 1526.502 978.837 1521.594 974.149 1520.653 968.183 C 1519.26 959.353 1526.209 952.452 1534.143 952.881 C 1539.62 953.177 1544.044 957.39 1545.165 962.76 Z " fill="none" vector-effect="non-scaling-stroke" stroke-width="9" stroke="rgb(91,91,91)" stroke-linejoin="miter" stroke-linecap="square" stroke-miterlimit="3"/><path d=" M 1305.272 755.486 L 1246.162 718.857 L 1195.814 570.889 C 1195.814 570.889 1190.76 554.233 1168.759 556.635 C 1146.758 559.037 1148.063 580.234 1148.063 580.234 C 1148.063 580.234 1167.204 762.091 1173.705 772.766 C 1180.204 783.439 1453.216 973.062 1453.216 973.062 L 1475.327 955.758 L 1478.211 794.251 L 1300.202 659.021 C 1300.202 659.021 1281.494 651.192 1265.993 664.268 C 1250.492 677.344 1260.933 701.03 1260.933 701.03 L 1342.97 798.35" fill="rgb(201,204,204)" vector-effect="non-scaling-stroke" stroke-width="9" stroke="rgb(91,91,91)" stroke-linejoin="miter" stroke-linecap="square" stroke-miterlimit="3"/><path d=" M 1338.496 807.155 C 1339.582 814.24 1346.207 819.103 1353.292 818.017 C 1360.376 816.929 1366.2 810.305 1365.114 803.221 C 1364.028 796.135 1357.403 791.273 1350.318 792.359 C 1343.233 793.446 1337.41 800.071 1338.496 807.155 Z " fill="rgb(201,204,204)"/><path d=" M 1338.496 807.155 C 1339.582 814.24 1346.207 819.103 1353.292 818.017 C 1360.376 816.929 1366.2 810.305 1365.114 803.221 C 1364.028 796.135 1357.403 791.273 1350.318 792.359 C 1343.233 793.446 1337.41 800.071 1338.496 807.155 Z " fill="none" vector-effect="non-scaling-stroke" stroke-width="9" stroke="rgb(91,91,91)" stroke-linejoin="miter" stroke-linecap="square" stroke-miterlimit="3"/><line x1="1268.527" y1="664.472" x2="1412.839" y2="813.478" vector-effect="non-scaling-stroke" stroke-width="9" stroke="rgb(91,91,91)" stroke-linejoin="miter" stroke-linecap="square" stroke-miterlimit="3"/><path d=" M 1411.964 819.887 C 1413.051 826.972 1419.675 831.834 1426.76 830.748 C 1433.845 829.661 1438.707 823.036 1437.621 815.952 C 1436.534 808.867 1429.91 804.004 1422.825 805.091 C 1415.74 806.178 1410.878 812.803 1411.964 819.887 Z " fill="rgb(201,204,204)"/><path d=" M 1411.964 819.887 C 1413.051 826.972 1419.675 831.834 1426.76 830.748 C 1433.845 829.661 1438.707 823.036 1437.621 815.952 C 1436.534 808.867 1429.91 804.004 1422.825 805.091 C 1415.74 806.178 1410.878 812.803 1411.964 819.887 Z " fill="none" vector-effect="non-scaling-stroke" stroke-width="9" stroke="rgb(91,91,91)" stroke-linejoin="miter" stroke-linecap="square" stroke-miterlimit="3"/><path d=" M 1271.629 783.371 C 1272.715 790.456 1280.301 795.319 1287.387 794.232 C 1294.472 793.145 1299.333 786.521 1298.247 779.436 C 1297.161 772.351 1290.536 767.489 1283.451 768.575 C 1276.367 769.661 1270.543 776.286 1271.629 783.371 Z " fill="rgb(201,204,204)"/><path d=" M 1150.281 580.834 L 1182.994 607.737 L 1213.283 738.619 L 1270.536 776.245" fill="rgb(201,204,204)" vector-effect="non-scaling-stroke" stroke-width="9" stroke="rgb(91,91,91)" stroke-linejoin="miter" stroke-linecap="square" stroke-miterlimit="3"/><path d=" M 1271.629 783.371 C 1272.715 790.456 1280.301 795.319 1287.387 794.232 C 1294.472 793.145 1299.333 786.521 1298.247 779.436 C 1297.161 772.351 1290.536 767.489 1283.451 768.575 C 1276.367 769.661 1270.543 776.286 1271.629 783.371 Z " fill="none" vector-effect="non-scaling-stroke" stroke-width="9" stroke="rgb(91,91,91)" stroke-linejoin="miter" stroke-linecap="square" stroke-miterlimit="3"/><path d=" M 1453.448 962.756 C 1451.59 971.663 1458.228 978.8 1466.07 978.819 C 1472.111 978.834 1477.018 974.146 1477.959 968.18 C 1479.353 959.35 1472.404 952.449 1464.47 952.878 C 1458.993 953.174 1454.569 957.387 1453.448 962.756 Z " fill="rgb(201,204,204)"/><path d=" M 1453.448 962.756 C 1451.59 971.663 1458.228 978.8 1466.07 978.819 C 1472.111 978.834 1477.018 974.146 1477.959 968.18 C 1479.353 959.35 1472.404 952.449 1464.47 952.878 C 1458.993 953.174 1454.569 957.387 1453.448 962.756 Z " fill="none" vector-effect="non-scaling-stroke" stroke-width="9" stroke="rgb(91,91,91)" stroke-linejoin="miter" stroke-linecap="square" stroke-miterlimit="3"/></g></g><g><ellipse vector-effect="non-scaling-stroke" cx="64.8284432259529" cy="869.0958600284999" rx="16.891747531710266" ry="16.904139971500058" fill="none" stroke-width="11" stroke="rgb(26,136,193)" stroke-linejoin="miter" stroke-linecap="square" stroke-miterlimit="3"/><ellipse vector-effect="non-scaling-stroke" cx="242.19179230891075" cy="869.0958600284999" rx="16.891747531710266" ry="16.904139971500058" fill="none" stroke-width="11" stroke="rgb(26,136,193)" stroke-linejoin="miter" stroke-linecap="square" stroke-miterlimit="3"/><ellipse vector-effect="non-scaling-stroke" cx="153.51011776743192" cy="662.0201453776245" rx="16.89174753171028" ry="16.904139971500058" fill="none" stroke-width="11" stroke="rgb(26,136,193)" stroke-linejoin="miter" stroke-linecap="square" stroke-miterlimit="3"/><ellipse vector-effect="non-scaling-stroke" cx="326.1082524682898" cy="662.0201453776245" rx="16.89174753171028" ry="16.904139971500058" fill="none" stroke-width="11" stroke="rgb(26,136,193)" stroke-linejoin="miter" stroke-linecap="square" stroke-miterlimit="3"/><ellipse vector-effect="non-scaling-stroke" cx="326.1082524682898" cy="869.0958600284989" rx="16.89174753171028" ry="16.904139971500058" fill="none" stroke-width="11" stroke="rgb(26,136,193)" stroke-linejoin="miter" stroke-linecap="square" stroke-miterlimit="3"/><line x1="326.108" y1="678.924" x2="326.108" y2="852.192" vector-effect="non-scaling-stroke" stroke-width="18" stroke="rgb(26,136,193)" stroke-linejoin="miter" stroke-linecap="butt" stroke-miterlimit="3"/><ellipse vector-effect="non-scaling-stroke" cx="90.16606452351836" cy="814.1574051211244" rx="16.891747531710266" ry="16.904139971500058" fill="none" stroke-width="11" stroke="rgb(26,136,193)" stroke-linejoin="miter" stroke-linecap="square" stroke-miterlimit="3"/><line x1="225.538" y1="833.162" x2="232.418" y2="849.214" vector-effect="non-scaling-stroke" stroke-width="18" stroke="rgb(26,136,193)" stroke-linejoin="miter" stroke-linecap="square" stroke-miterlimit="3"/><line x1="111.281" y1="818.383" x2="195.739" y2="818.383" vector-effect="non-scaling-stroke" stroke-width="18" stroke="rgb(26,136,193)" stroke-linejoin="miter" stroke-linecap="square" stroke-miterlimit="3"/><ellipse vector-effect="non-scaling-stroke" cx="216.85417101134544" cy="814.1574051211244" rx="16.89174753171028" ry="16.904139971500058" fill="none" stroke-width="11" stroke="rgb(26,136,193)" stroke-linejoin="miter" stroke-linecap="square" stroke-miterlimit="3"/><line x1="94.389" y1="797.253" x2="145.064" y2="678.924" vector-effect="non-scaling-stroke" stroke-width="18" stroke="rgb(26,136,193)" stroke-linejoin="miter" stroke-linecap="butt" stroke-miterlimit="3"/><line x1="73.274" y1="852.192" x2="81.72" y2="831.062" vector-effect="non-scaling-stroke" stroke-width="18" stroke="rgb(26,136,193)" stroke-linejoin="miter" stroke-linecap="butt" stroke-miterlimit="3"/><line x1="165.914" y1="679.515" x2="208.408" y2="788.801" vector-effect="non-scaling-stroke" stroke-width="18" stroke="rgb(26,136,193)" stroke-linejoin="miter" stroke-linecap="square" stroke-miterlimit="3"/></g><g transform="matrix(21.875,0,0,21.875,29.875,924.076)"><text transform="matrix(1,0,0,1,0,16)" style="font-family:'QTRIKA+Avenir-Roman';font-weight:400;font-size:16px;font-style:normal;fill:#5b5b5b;stroke:none;">S  cial Go  d</text></g><g><g><path d=" M 1643.123 204 C 1646.073 203.998 1649.134 204.411 1651.767 205.821 C 1660.749 210.633 1661.694 224.987 1653.379 230.861 C 1649.561 233.557 1644.769 233.491 1640.304 233.006 C 1639.197 232.885 1638.104 232.611 1637.356 231.721 L 1637.356 231.721 L 1637.17 231.163 L 1636.426 231.535 C 1631.661 228.767 1629.507 222.29 1630.406 217.004 C 1631.574 210.143 1636.324 205.462 1643.123 204 L 1643.123 204 Z " fill="rgb(201,204,204)" vector-effect="non-scaling-stroke" stroke-width="5" stroke="rgb(91,91,91)" stroke-linejoin="miter" stroke-linecap="square" stroke-miterlimit="3"/><path d=" M 1627.906 236.975 L 1652.465 236.975 C 1658.079 236.233 1664.864 236.166 1669.395 240.137 L 1669.395 240.137 L 1669.581 240.696 C 1670.313 239.638 1670.972 240.9 1671.256 241.626 L 1671.256 241.626 L 1671.814 242.928 L 1672.744 243.486 L 1673.488 244.603 L 1673.302 245.161 L 1673.86 245.347 L 1679.07 258.742 C 1678.35 259.174 1678.888 259.621 1679.442 259.859 L 1679.442 259.859 L 1685.581 281.999 Q 1687.962 287.432 1688 295.208 Q 1687.535 297.348 1685.953 298.371 L 1682.605 299.487 L 1681.86 299.487 Q 1678.478 299.706 1677.581 297.441 Q 1671.987 286.662 1669.767 272.51 Q 1668.526 263.704 1664.372 257.812 L 1662.883 257.44 Q 1661.209 258.184 1661.953 261.347 Q 1669.62 293.122 1679.07 323.115 L 1670.697 323.674 L 1667.349 324.046 Q 1662.883 322.743 1661.581 324.604 Q 1662.976 325.627 1661.953 329.069 L 1661.953 341.348 C 1660.34 342.603 1661.099 345.347 1661.581 346.93 L 1661.581 346.93 L 1661.581 362.93 C 1662.227 367.488 1662.281 373.261 1658.418 376.512 L 1658.418 376.512 L 1657.86 376.698 L 1657.302 377.628 L 1653.581 378 L 1650.046 376.326 L 1649.86 375.767 L 1648.93 375.209 Q 1644.565 366.737 1646.325 352.139 Q 1647.162 351.674 1646.697 349.907 Q 1645.302 348.883 1646.325 345.441 Q 1647.72 344.418 1646.697 340.976 Q 1646.116 334.255 1647.069 329.069 Q 1646.139 328.511 1646.697 326.464 L 1647.069 324.604 C 1646.418 323.519 1644.943 323.706 1643.895 323.871 C 1642.307 324.122 1642.262 325.469 1642.604 326.836 L 1642.604 326.836 L 1642.604 334.278 L 1642.604 362.93 C 1644.333 364.359 1643.781 367.16 1643.357 369.014 C 1642.359 373.381 1641.312 377.599 1636.092 378 L 1636.092 378 L 1635.348 378 C 1630.98 377.535 1627.995 374.46 1628.092 370 L 1628.092 370 L 1628.092 369.256 L 1627.534 324.79 C 1621.707 325.223 1615.739 325.1 1610.045 323.674 L 1610.045 323.674 L 1609.487 323.86 L 1609.115 321.627 L 1609.673 320.325 L 1610.231 320.139 L 1609.859 318.65 L 1611.348 315.673 L 1611.348 314.929 Q 1620.663 289.081 1627.348 260.603 Q 1627.494 258.224 1626.046 257.44 L 1623.999 258.37 C 1620.47 266.45 1618.093 275.002 1616.557 283.673 L 1616.557 283.673 L 1613.952 292.231 C 1613.996 293.36 1613.92 294.516 1613.575 295.598 C 1612.355 299.415 1607.65 300.627 1604.346 298.675 C 1603.384 298.107 1602.593 297.295 1602.045 296.324 L 1602.045 296.324 L 1601.301 292.603 C 1603.086 283.457 1605.458 274.417 1608.557 265.626 L 1608.557 265.626 L 1609.115 265.44 L 1608.743 263.952 L 1609.673 261.905 L 1610.231 261.719 L 1609.859 260.603 C 1611.235 253.498 1614.172 246.613 1619.348 241.44 L 1619.348 241.44 L 1619.906 241.254 L 1620.464 240.323 L 1621.394 239.765 L 1621.58 239.207 L 1627.906 236.975 Z " fill="rgb(201,204,204)" vector-effect="non-scaling-stroke" stroke-width="5" stroke="rgb(91,91,91)" stroke-linejoin="miter" stroke-linecap="square" stroke-miterlimit="3"/></g></g><g><g><path d=" M 1282.809 319.052 Q 1292.818 318.452 1295.908 324.771 Q 1299.746 328.314 1298.86 336.579 Q 1297.685 341.493 1294.617 344.513 Q 1291.111 349.125 1282.44 348.572 Q 1276.115 347.332 1273.03 342.852 Q 1270.216 339.947 1269.709 334.734 Q 1270.397 325.828 1276.167 322.004 Q 1278.75 319.79 1282.809 319.052 Z " fill="rgb(201,204,204)" vector-effect="non-scaling-stroke" stroke-width="5" stroke="rgb(91,91,91)" stroke-linejoin="miter" stroke-linecap="square" stroke-miterlimit="3"/><path d=" M 1296.462 350.786 Q 1310.005 350.895 1316.203 358.35 Q 1321.453 364.17 1320.631 376.062 L 1320.262 376.8 C 1321.306 377.496 1320.911 379.143 1320.631 380.121 L 1320.631 380.121 L 1320.262 380.859 C 1321.399 381.646 1320.944 383.47 1320.631 384.549 L 1320.631 384.549 L 1320.631 394.512 L 1320.262 395.25 L 1320.631 396.357 L 1321 413.331 C 1320.705 415.663 1319.775 417.963 1317.864 419.42 L 1317.864 419.42 L 1314.174 420.527 C 1307.564 418.737 1307.46 411.646 1308.085 405.951 L 1308.085 405.951 L 1308.085 383.811 L 1308.454 382.335 C 1306.97 381.139 1307.344 378.768 1307.716 377.169 L 1307.716 377.169 L 1308.085 376.431 L 1307.163 375.14 C 1305.874 374.954 1304.235 375.038 1303.657 376.431 L 1303.657 376.431 L 1303.657 390.453 C 1303.285 392.201 1302.983 394.396 1304.026 395.988 L 1304.026 395.988 L 1303.657 396.726 C 1304.608 397.331 1304.272 398.8 1304.026 399.678 L 1304.026 399.678 L 1304.026 407.796 C 1303.169 408.31 1303.445 409.601 1303.657 410.379 L 1303.657 410.379 L 1303.657 417.021 L 1303.288 443.22 C 1304.145 443.734 1303.869 445.025 1303.657 445.803 L 1303.657 445.803 L 1303.657 452.814 Q 1302.181 453.921 1303.288 457.611 Q 1303.973 464.385 1302.919 469.419 Q 1304.118 470.249 1303.288 473.109 L 1303.288 483.81 C 1303.148 485.736 1302.604 487.715 1301.259 489.16 L 1301.259 489.16 L 1300.336 489.714 L 1300.152 490.267 C 1296.677 493.184 1290.8 492.269 1288.528 488.238 C 1286.14 484.001 1286.187 478.527 1286.683 473.847 L 1286.683 473.847 L 1286.683 452.076 L 1287.052 450.231 Q 1285.668 449.216 1286.683 445.803 Q 1288.344 444.512 1287.052 440.268 L 1287.052 424.032 L 1285.761 421.265 L 1283.916 420.896 L 1282.624 421.818 C 1281.863 422.851 1282.026 424.332 1282.255 425.508 L 1282.255 425.508 L 1282.255 434.364 L 1281.886 468.312 C 1280.371 472.219 1280.94 476.464 1281.517 480.489 C 1281.903 483.182 1281.918 486.26 1280.631 488.736 C 1278.436 492.961 1272.467 494.331 1268.565 491.55 C 1265.381 489.279 1264.391 485.305 1264.543 481.596 L 1264.543 481.596 L 1264.543 467.943 L 1264.543 423.663 C 1265.494 423.058 1265.158 421.589 1264.912 420.711 L 1264.912 420.711 L 1264.912 412.224 L 1264.912 378.276 C 1264.897 377.132 1264.498 375.557 1263.252 375.14 C 1262.546 374.903 1261.316 375.037 1260.853 375.693 C 1259.431 377.708 1259.995 380.873 1260.484 383.073 L 1260.484 383.073 L 1260.484 404.106 C 1261.161 407.482 1261.59 411.131 1260.725 414.517 C 1259.569 419.041 1256.362 421.206 1251.813 420.527 L 1251.813 420.527 L 1248.676 418.128 C 1246.474 413.747 1246.588 408.475 1247.2 403.737 L 1247.2 403.737 L 1246.831 378.645 Q 1246.536 361.745 1255.872 354.476 Q 1262.283 350.371 1273.953 351.524 Q 1285.912 351.859 1296.462 350.786 Z " fill="rgb(201,204,204)" vector-effect="non-scaling-stroke" stroke-width="5" stroke="rgb(91,91,91)" stroke-linejoin="miter" stroke-linecap="square" stroke-miterlimit="3"/></g></g><g><path d=" M 275.253 1113.097 L 275.592 1113.097 C 289.024 1113.101 303.524 1115.978 313.013 1126.25 L 313.013 1126.25 L 313.267 1126.674 L 316.237 1129.474 L 318.868 1132.783 L 319.716 1134.141 L 320.141 1134.396 L 320.395 1134.82 L 320.989 1134.396 Q 323.803 1130.081 327.523 1126.674 Q 338.424 1115.513 358.071 1113.097 L 358.41 1113.267 C 358.814 1112.702 359.733 1112.937 360.277 1113.097 L 360.277 1113.097 L 365.368 1113.097 Q 387.943 1115.724 399.225 1129.644 Q 411.823 1141.909 411.954 1166.64 Q 410.38 1182.208 404.147 1193.115 Q 400.211 1201.398 394.898 1208.304 L 356.628 1208.219 L 346.531 1176.568 L 332.784 1205.758 L 332.53 1205.843 L 332.53 1206.183 L 321.244 1230.366 C 319.881 1228.067 319.14 1225.449 318.783 1222.814 L 318.783 1222.814 L 312.504 1202.279 C 312.832 1202.083 312.587 1201.879 312.334 1201.77 L 312.334 1201.77 L 294.769 1144.663 C 287.583 1165.801 280.627 1187.017 273.895 1208.304 L 273.895 1208.304 L 253.021 1208.304 L 247.929 1208.304 Q 246.105 1208.771 245.638 1207.88 Q 239.813 1200.128 235.625 1190.739 Q 228.79 1178.822 229.007 1159.852 Q 231.732 1136.952 245.893 1125.486 Q 256.576 1115.295 275.253 1113.097 Z  M 294.599 1169.271 L 319.716 1251.071 C 326.349 1238.173 332.509 1225.032 338.215 1211.698 L 338.215 1211.698 L 338.469 1211.613 L 338.469 1211.274 L 345.173 1196.934 L 351.282 1215.771 L 389.043 1215.856 L 386.752 1218.826 L 386.497 1218.911 L 383.188 1222.899 L 382.933 1222.984 L 379.624 1226.802 L 379.03 1227.227 L 378.945 1227.481 L 378.691 1227.566 L 370.629 1235.797 L 370.375 1235.882 L 369.95 1236.476 Q 347.34 1257.905 320.395 1275 Q 301.078 1262.666 283.993 1248.101 L 283.908 1247.846 L 276.525 1241.652 L 276.44 1241.398 L 274.489 1239.785 L 274.404 1239.531 L 274.149 1239.446 L 274.065 1239.191 L 268.719 1234.355 L 268.294 1233.761 L 268.04 1233.676 L 267.785 1233.251 L 267.191 1232.827 L 266.937 1232.403 L 266.512 1232.148 L 266.428 1231.894 L 265.834 1231.469 L 265.409 1230.876 L 265.155 1230.791 L 265.07 1230.536 L 264.476 1230.112 L 264.052 1229.518 L 263.797 1229.433 L 260.827 1226.124 L 260.573 1226.039 L 256.245 1221.032 L 255.99 1220.948 L 251.748 1215.856 L 279.41 1215.687 L 289.763 1183.781 C 291.067 1178.849 292.663 1173.992 294.599 1169.271 L 294.599 1169.271 Z " fill-rule="evenodd" fill="rgb(215,80,87)"/></g><g><path d=" M 1597.451 1019.113 C 1600.676 1019.043 1603.926 1019.243 1607.084 1019.932 C 1626.776 1024.229 1631.919 1051.244 1615.607 1063.07 L 1615.607 1063.07 L 1604.618 1068.326 L 1605.096 1106.071 C 1609.798 1109.063 1616.221 1108.14 1621.341 1107.027 L 1621.341 1107.027 L 1664.82 1107.505 L 1664.342 1128.05 L 1621.341 1128.05 C 1616.571 1126.636 1608.254 1124.484 1604.618 1129.483 L 1604.618 1129.483 L 1604.618 1147.639 C 1603.966 1150.153 1603.212 1154.233 1606.052 1155.762 L 1606.052 1155.762 L 1660.52 1155.762 C 1666.399 1153.98 1676.487 1151.244 1681.065 1157.195 L 1681.065 1157.195 L 1714.032 1227.43 C 1716.336 1227.778 1719.348 1227.781 1720.721 1225.519 L 1720.721 1225.519 L 1738.878 1218.83 Q 1741.364 1230.199 1747 1238.42 Q 1727.099 1249.097 1703.521 1256.098 L 1666.253 1177.74 L 1582.64 1177.262 L 1582.64 1088.393 L 1582.64 1066.415 C 1583.121 1063.367 1583.219 1060.265 1582.192 1057.307 C 1581.142 1054.284 1578.2 1052.932 1577.28 1049.677 C 1573.292 1035.573 1583.445 1021.421 1597.451 1019.113 L 1597.451 1019.113 Z " fill="rgb(201,204,204)"/><path d=" M 1567.828 1115.627 L 1569.262 1118.972 L 1569.262 1120.883 C 1570.75 1125.698 1573.141 1134.169 1568.306 1138.083 L 1568.306 1138.083 L 1569.262 1140.95 L 1563.528 1145.728 L 1563.05 1147.161 L 1561.617 1147.639 L 1561.139 1149.073 L 1559.706 1149.55 C 1540.945 1166.08 1538.708 1199.598 1549.371 1221.281 C 1550.775 1224.136 1552.467 1226.853 1554.45 1229.342 L 1554.45 1229.342 L 1555.883 1229.819 L 1564.961 1240.809 C 1566.781 1242.766 1568.77 1244.539 1570.925 1246.133 C 1602.504 1269.484 1657 1254.01 1667.209 1215.008 L 1667.209 1215.008 L 1668.642 1215.486 L 1680.109 1240.331 L 1673.898 1248.453 L 1672.465 1248.931 L 1664.342 1258.009 L 1655.264 1264.22 L 1654.786 1265.654 C 1652.219 1267.528 1649.503 1269.173 1646.661 1270.608 C 1616.563 1285.814 1574.652 1281.256 1550.15 1257.531 L 1550.15 1257.531 L 1549.672 1256.098 L 1548.239 1255.62 L 1547.761 1254.187 L 1542.505 1249.887 L 1542.027 1248.453 L 1540.594 1247.975 L 1536.294 1240.809 L 1534.861 1240.331 C 1523.168 1224.747 1521.01 1204.704 1521.278 1185.828 C 1521.611 1162.38 1535.501 1137.649 1554.45 1124.227 L 1554.45 1124.227 L 1555.883 1123.75 L 1556.361 1122.316 L 1560.184 1120.405 L 1567.828 1115.627 Z " fill="rgb(201,204,204)"/></g></g></svg>